<svg width="128" height="128" viewBox="0 0 128 128" fill="none" xmlns="http://www.w3.org/2000/svg">
  <defs>
    <linearGradient id="grad1" x1="0%" y1="0%" x2="100%" y2="100%">
      <stop offset="0%" style="stop-color:#7C3AED;stop-opacity:1" />
      <stop offset="100%" style="stop-color:#2563EB;stop-opacity:1" />
    </linearGradient>
    <linearGradient id="grad1-light" x1="0%" y1="0%" x2="100%" y2="100%">
      <stop offset="0%" style="stop-color:#A78BFA;stop-opacity:0.9" />
      <stop offset="100%" style="stop-color:#60A5FA;stop-opacity:0.9" />
    </linearGradient>
  </defs>

  <!-- Background -->
  <rect width="128" height="128" rx="28" fill="url(#grad1)" />

  <!-- Weave Pattern -->
  <g opacity="0.9">
    <!-- Horizontal threads -->
    <path d="M24 40 Q40 36, 56 40 T88 40 T120 40" stroke="url(#grad1-light)" stroke-width="6" fill="none" stroke-linecap="round"/>
    <path d="M8 56 Q24 52, 40 56 T72 56 T104 56" stroke="url(#grad1-light)" stroke-width="6" fill="none" stroke-linecap="round"/>
    <path d="M24 72 Q40 68, 56 72 T88 72 T120 72" stroke="url(#grad1-light)" stroke-width="6" fill="none" stroke-linecap="round"/>
    <path d="M8 88 Q24 84, 40 88 T72 88 T104 88" stroke="url(#grad1-light)" stroke-width="6" fill="none" stroke-linecap="round"/>

    <!-- Vertical threads -->
    <path d="M40 24 Q36 40, 40 56 T40 88 T40 120" stroke="white" stroke-width="6" fill="none" stroke-linecap="round" opacity="0.95"/>
    <path d="M56 8 Q52 24, 56 40 T56 72 T56 104" stroke="white" stroke-width="6" fill="none" stroke-linecap="round" opacity="0.95"/>
    <path d="M72 24 Q68 40, 72 56 T72 88 T72 120" stroke="white" stroke-width="6" fill="none" stroke-linecap="round" opacity="0.95"/>
    <path d="M88 8 Q84 24, 88 40 T88 72 T88 104" stroke="white" stroke-width="6" fill="none" stroke-linecap="round" opacity="0.95"/>
  </g>

  <!-- Center accent - AI spark -->
  <circle cx="64" cy="64" r="8" fill="white" opacity="0.9"/>
  <circle cx="64" cy="64" r="4" fill="#FCD34D"/>
</svg>
